<svg width="71" height="66" viewBox="0 0 71 66" fill="none" xmlns="http://www.w3.org/2000/svg">
<path d="M15.1714 21.02C16.8694 17.7065 19.4742 14.921 22.6948 12.9749C25.9153 11.0289 29.6246 9.99883 33.4082 10C38.9082 10 43.5286 11.98 47.0612 15.21L41.2102 20.946C39.0939 18.964 36.4041 17.954 33.4082 17.954C28.0918 17.954 23.5918 21.474 21.9898 26.2C21.5816 27.4 21.349 28.68 21.349 30C21.349 31.32 21.5816 32.6 21.9898 33.8C23.5939 38.528 28.0918 42.046 33.4082 42.046C36.1531 42.046 38.4898 41.336 40.3184 40.136C41.3784 39.452 42.286 38.5644 42.9861 37.527C43.6863 36.4895 44.1645 35.3237 44.3918 34.1H33.4082V26.364H52.6286C52.8694 27.672 53 29.036 53 30.454C53 36.546 50.7755 41.674 46.9143 45.154C43.5388 48.21 38.9184 50 33.4082 50C30.7278 50.001 28.0735 49.4844 25.597 48.4797C23.1205 47.475 20.8703 46.0019 18.975 44.1445C17.0797 42.2871 15.5765 40.0819 14.5513 37.6549C13.5261 35.2279 12.9989 32.6267 13 30C13 26.772 13.7878 23.72 15.1714 21.02Z" fill="#DB4437"/>
</svg>
