<svg xmlns="http://www.w3.org/2000/svg" version="1.1" xmlns:xlink="http://www.w3.org/1999/xlink" xmlns:svgjs="http://svgjs.dev/svgjs" width="1000" height="1000" viewBox="0 0 1000 1000"><rect width="1000" height="1000" fill="#2c6e49"></rect><g transform="matrix(0.7,0,0,0.7,149.5757633860203,434.08905373316804)"><svg viewBox="0 0 396 75" data-background-color="#2c6e49" preserveAspectRatio="xMidYMid meet" height="189" width="1000" xmlns="http://www.w3.org/2000/svg" xmlns:xlink="http://www.w3.org/1999/xlink"><g id="tight-bounds" transform="matrix(1,0,0,1,0.23999671305136872,-0.13551795229417962)"><svg viewBox="0 0 395.52 75.2710359416185" height="75.2710359416185" width="395.52"><g><svg viewBox="0 0 409.7045410980023 77.97048250008103" height="75.2710359416185" width="395.52"><g><svg viewBox="0 0 409.7045410980023 77.97048250008103" height="77.97048250008103" width="409.7045410980023"><g><svg viewBox="0 0 409.7045410980023 77.97048250008103" height="77.97048250008103" width="409.7045410980023" id="textblock"><g><svg viewBox="0 0 409.7045410980023 51.695100000000004" height="51.695100000000004" width="409.7045410980023"><g><svg><g></g><g></g></svg></g><g><svg><g></g><g><svg></svg></g></svg></g><g id="text-0"><svg viewBox="0 0 409.7045410980023 51.695100000000004" height="51.695100000000004" width="409.7045410980023"><g transform="matrix(1,0,0,1,0,9.84755)"><svg width="172.29999999999998" viewBox="3.5999999046325684 -31.850000381469727 172.2899932861328 31.950000762939453" height="31.95" data-palette-color="#ffffff"><path d="M23.15-16.9Q26.8-16.45 28.58-14.58 30.35-12.7 30.35-9.95L30.35-9.95Q30.35-7.2 28.33-4.75 26.3-2.3 23.15-0.95L23.15-0.95Q21.75-0.4 19.48-0.15 17.2 0.1 14.8 0.1L14.8 0.1Q10.8 0.1 6.6-0.65L6.6-0.65Q5.85-0.8 5.03-1.4 4.2-2 4.2-3.15L4.2-3.15Q4.15-7.75 3.85-15.95L3.85-15.95 3.8-18.7Q3.6-25.1 3.6-28.75L3.6-28.75Q3.6-29.4 4.38-30.28 5.15-31.15 6.25-31.25L6.25-31.25Q6.9-31.25 7.5-31.3L7.5-31.3Q13.15-31.85 15.05-31.85L15.05-31.85Q18.8-31.85 21.68-31.13 24.55-30.4 26.45-28.5L26.45-28.5Q27.15-27.7 27.6-26.48 28.05-25.25 28.05-24.1L28.05-24.1Q28.1-21.65 26.78-19.6 25.45-17.55 23.15-16.9L23.15-16.9ZM15.35-27.6Q13.65-27.6 11.83-27.4 10-27.2 8.75-26.9L8.75-26.9 9.05-17.45 10.85-17.5Q15.2-17.95 17.25-18.25L17.25-18.25Q18.55-18.55 19.8-19.43 21.05-20.3 21.88-21.28 22.7-22.25 22.7-22.75L22.7-22.75Q22.7-23.5 22.4-24.28 22.1-25.05 21.75-25.4L21.75-25.4Q20.4-26.7 19-27.15 17.6-27.6 15.35-27.6L15.35-27.6ZM9.2-4.3Q11.75-3.95 14.05-3.95L14.05-3.95Q19.1-3.95 22.03-5.28 24.95-6.6 24.95-10.35L24.95-10.35Q24.95-11.85 22.7-12.85 20.45-13.85 17.85-13.85L17.85-13.85Q16.1-13.85 13.4-13.45L13.4-13.45Q11.25-13.15 9.2-13.05L9.2-13.05Q9.3-10.05 9.3-9.25L9.3-9.25Q9.3-7.7 9.25-6.9L9.25-6.9 9.2-4.3ZM49.65-31.8Q53-31.8 55.75-30.98 58.5-30.15 60.25-28.55L60.25-28.55Q63.4-25.7 64.67-22.33 65.95-18.95 65.95-13.7L65.95-13.7Q65.95-12.6 65.67-11.7 65.4-10.8 64.8-9.4L64.8-9.4Q64.05-7.85 63.9-6.95L63.9-6.95Q62.9-5.2 60.62-3.6 58.35-2 55.7-1 53.05 0 51.05 0L51.05 0Q41.4 0 37.3-6.6L37.3-6.6Q36.15-8.45 35.52-10.45 34.9-12.45 34.9-14.35L34.9-14.35Q34.9-19.45 36.72-23.23 38.55-27 41.8-29.1L41.8-29.1Q43.75-30.25 45.87-31.03 48-31.8 49.65-31.8L49.65-31.8ZM40.1-14.2Q40.1-11.5 41.32-9.75 42.55-8 45.1-5.95L45.1-5.95Q47.2-5.15 47.95-4.93 48.7-4.7 49.65-4.7L49.65-4.7Q54.7-4.7 57.7-7.45 60.7-10.2 60.7-15L60.7-15Q60.7-18.8 59.85-21 59-23.2 56.8-24.95L56.8-24.95Q55.65-25.9 53.87-26.35 52.1-26.8 50.05-26.8L50.05-26.8Q46.95-26.8 44.7-24.98 42.45-23.15 41.27-20.25 40.1-17.35 40.1-14.2L40.1-14.2ZM69.1-29.15Q69.1-31.3 72.25-31.3L72.25-31.3Q73.6-31.3 77.4-31.2L77.4-31.2Q81.6-31 83.75-31L83.75-31Q85.5-31 88-31.2L88-31.2Q89.7-31.3 90.15-31.3L90.15-31.3Q92.9-31.2 94.8-30.3L94.8-30.3Q95.35-30.05 95.7-29.7 96.05-29.35 96.05-28.55L96.05-28.55Q96.05-27.45 95.35-26.68 94.65-25.9 93.65-25.9L93.65-25.9Q92.55-25.9 90.45-26.2L90.45-26.2Q88.6-26.55 87.2-26.55L87.2-26.55Q85.85-26.55 85.15-26.5L85.15-26.5Q85-24.85 85-18.6L85-18.6Q85-11.15 85.45-3.5L85.45-3.5 85.55-2.05Q85.55 0 83.2 0L83.2 0Q81.35 0 80.7-0.88 80.05-1.75 80.05-3.55L80.05-3.55Q80.05-7.1 79.85-12.4L79.85-12.4Q79.65-16.8 79.65-18.65L79.65-18.65Q79.65-19.9 79.95-26.3L79.95-26.3 74.1-26.25Q71.3-26.25 70.2-26.78 69.1-27.3 69.1-29.15L69.1-29.15ZM97.14-29.15Q97.14-31.3 100.29-31.3L100.29-31.3Q101.64-31.3 105.44-31.2L105.44-31.2Q109.64-31 111.79-31L111.79-31Q113.54-31 116.04-31.2L116.04-31.2Q117.74-31.3 118.19-31.3L118.19-31.3Q120.94-31.2 122.84-30.3L122.84-30.3Q123.39-30.05 123.74-29.7 124.09-29.35 124.09-28.55L124.09-28.55Q124.09-27.45 123.39-26.68 122.69-25.9 121.69-25.9L121.69-25.9Q120.59-25.9 118.49-26.2L118.49-26.2Q116.64-26.55 115.24-26.55L115.24-26.55Q113.89-26.55 113.19-26.5L113.19-26.5Q113.04-24.85 113.04-18.6L113.04-18.6Q113.04-11.15 113.49-3.5L113.49-3.5 113.59-2.05Q113.59 0 111.24 0L111.24 0Q109.39 0 108.74-0.88 108.09-1.75 108.09-3.55L108.09-3.55Q108.09-7.1 107.89-12.4L107.89-12.4Q107.69-16.8 107.69-18.65L107.69-18.65Q107.69-19.9 107.99-26.3L107.99-26.3 102.14-26.25Q99.34-26.25 98.24-26.78 97.14-27.3 97.14-29.15L97.14-29.15ZM130.79-31.75Q131.74-31.75 132.52-31.25 133.29-30.75 133.44-29.5L133.44-29.5Q134.04-25.55 134.22-21.63 134.39-17.7 134.39-12.75L134.39-12.75Q134.39-10.65 134.04-5.1L134.04-5.1Q136.24-4.9 137.44-4.9L137.44-4.9Q138.29-4.9 141.29-5.15L141.29-5.15Q143.04-5.4 144.34-5.4L144.34-5.4Q145.54-5.4 146.54-5.18 147.54-4.95 148.59-4.45L148.59-4.45Q149.64-3.85 149.64-2.6L149.64-2.6Q149.64-1.6 149.02-0.8 148.39 0 147.54 0L147.54 0Q146.94 0 145.64-0.2L145.64-0.2Q143.29-0.55 141.14-0.55L141.14-0.55Q140.44-0.55 139.57-0.48 138.69-0.4 138.29-0.4L138.29-0.4Q137.09-0.25 135.89-0.25L135.89-0.25Q133.44-0.25 131.49-0.5L131.49-0.5Q130.49-0.6 129.49-1.28 128.49-1.95 128.49-3.25L128.49-3.25Q128.49-4 128.69-7.1L128.69-7.1Q129.04-12.25 129.04-14.95L129.04-14.95Q129.04-17.05 128.84-19.35 128.64-21.65 128.59-22.25L128.59-22.25Q128.14-26.5 128.14-29.25L128.14-29.25Q128.14-30.55 128.77-31.15 129.39-31.75 130.79-31.75L130.79-31.75ZM173.99-6.8Q174.94-6.8 175.41-6.08 175.89-5.35 175.89-4.5L175.89-4.5Q175.89-3.45 175.56-3.03 175.24-2.6 174.34-2.15L174.34-2.15Q172.24-1.15 169.14-0.55 166.04 0.05 162.49 0.05L162.49 0.05Q158.04 0.05 155.96-1.45 153.89-2.95 153.41-5.08 152.94-7.2 152.94-10.65L152.94-10.65Q152.94-14.35 153.24-17.93 153.54-21.5 154.29-27.05L154.29-27.05Q154.64-29.45 156.19-30.53 157.74-31.6 159.59-31.6L159.59-31.6Q161.14-31.6 164.64-31.7L164.64-31.7 168.99-31.75Q171.69-31.75 172.89-31.6L172.89-31.6Q174.39-31.3 175.11-30.93 175.84-30.55 175.84-29.65L175.84-29.65Q175.84-28.65 175.16-27.7 174.49-26.75 173.14-26.75L173.14-26.75Q171.59-26.75 168.69-26.95L168.69-26.95Q165.79-27.15 164.34-27.15L164.34-27.15Q163.09-27.15 161.89-27L161.89-27Q160.49-26.9 159.89-26.65 159.29-26.4 159.19-25.8L159.19-25.8Q158.49-20.65 158.49-18.2L158.49-18.2Q159.64-18.05 160.74-18.05L160.74-18.05Q162.14-18.05 163.74-18.2 165.34-18.35 165.79-18.4L165.79-18.4Q168.44-18.65 170.34-18.65L170.34-18.65Q171.44-18.65 172.01-18.25 172.59-17.85 172.59-17.15L172.59-17.15Q172.59-16.05 172.01-15.45 171.44-14.85 169.99-14.55L169.99-14.55Q168.24-14.2 165.66-14 163.09-13.8 160.64-13.8L160.64-13.8Q159.79-13.8 158.29-13.9L158.29-13.9Q158.14-10.85 158.14-8.25L158.14-8.25Q158.14-4.7 162.84-4.7L162.84-4.7Q165.34-4.7 166.99-5.05 168.64-5.4 170.79-6.05L170.79-6.05Q172.79-6.8 173.99-6.8L173.99-6.8Z" opacity="1" transform="matrix(1,0,0,1,0,0)" fill="#ffffff" class="undefined-p-0"></path></svg></g><g><svg xmlns="http://www.w3.org/2000/svg" xmlns:xlink="http://www.w3.org/1999/xlink" version="1.1" x="184.5049" y="0" viewBox="2.3951845169067383 2.397184371948242 100.00045013427734 100.00114440917969" enable-background="new 0 0 105 105" xml:space="preserve" height="51.695100000000004" width="51.694741098002275" class="icon-s-0" data-fill-palette-color="accent" id="s-0"><g fill="#ffffff" data-fill-palette-color="accent"><g fill="#ffffff" data-fill-palette-color="accent"><path d="M21.353 57.557l-12.12 12.12c0 0 2.019 0 6.056 0 0.002 0 0.003 0 0.003 0s0 6.053 0 12.108c0 11.569 12.12 12.132 12.12 12.132v-24.24c0 0 0.006 0 0.018 0 4.027 0 6.042 0 6.042 0L21.353 57.557z" fill="#ffffff" data-fill-palette-color="accent"></path></g></g><g fill="#ffffff" data-fill-palette-color="accent"><g fill="#ffffff" data-fill-palette-color="accent"><path d="M10.311 35.244c0 0 1.427 1.428 4.282 4.283 0.001 0.001 0.002 0.002 0.002 0.002s-4.28 4.28-8.562 8.563c-8.181 8.181-0.007 17.147-0.007 17.147l17.139-17.14c0 0 0.004 0.004 0.012 0.012 2.848 2.847 4.273 4.272 4.273 4.272v-17.14H10.311z" fill="#ffffff" data-fill-palette-color="accent"></path></g></g><g fill="#ffffff" data-fill-palette-color="accent"><g fill="#ffffff" data-fill-palette-color="accent"><path d="M35.115 33.474l12.12-12.119-12.12-12.12c0 0 0 2.019 0 6.057 0 0.002 0 0.004 0 0.004s-6.053 0-12.109 0c-11.568 0-12.13 12.119-12.13 12.119h24.239c0 0 0 0.006 0 0.018C35.115 31.458 35.115 33.474 35.115 33.474z" fill="#ffffff" data-fill-palette-color="accent"></path></g></g><g fill="#ffffff" data-fill-palette-color="accent"><g fill="#ffffff" data-fill-palette-color="accent"><path d="M65.21 14.595c-0.001 0.001-0.002 0.002-0.002 0.002s-4.279-4.28-8.563-8.562c-8.18-8.181-17.146-0.007-17.146-0.007l17.14 17.14c0 0-0.005 0.004-0.013 0.012-2.847 2.847-4.272 4.273-4.272 4.273h17.139v-17.14C69.493 10.313 68.066 11.74 65.21 14.595z" fill="#ffffff" data-fill-palette-color="accent"></path></g></g><g fill="#ffffff" data-fill-palette-color="accent"><g fill="#ffffff" data-fill-palette-color="accent"><path d="M89.445 35.063c-0.001 0-0.003 0-0.003 0s0-6.053 0-12.109c0-11.568-12.119-12.13-12.119-12.13v24.239c0 0-0.007 0-0.018 0-4.026 0-6.043 0-6.043 0l12.12 12.119 12.119-12.119C95.502 35.063 93.483 35.063 89.445 35.063z" fill="#ffffff" data-fill-palette-color="accent"></path></g></g><g fill="#ffffff" data-fill-palette-color="accent"><g fill="#ffffff" data-fill-palette-color="accent"><path d="M98.758 56.647c8.18-8.18 0.008-17.146 0.008-17.146L81.625 56.642c0 0-0.004-0.005-0.012-0.014-2.847-2.847-4.272-4.271-4.272-4.271v17.14h17.14c0 0-1.427-1.428-4.283-4.283-0.001-0.002-0.002-0.002-0.002-0.002S94.476 60.932 98.758 56.647z" fill="#ffffff" data-fill-palette-color="accent"></path></g></g><g fill="#ffffff" data-fill-palette-color="accent"><g fill="#ffffff" data-fill-palette-color="accent"><path d="M69.674 77.325c0 0 0-0.007 0-0.019 0-4.026 0-6.042 0-6.042l-12.119 12.12 12.119 12.119c0 0 0-2.02 0-6.057 0-0.001 0-0.003 0-0.003s6.054 0 12.11 0c11.568 0 12.13-12.119 12.13-12.119H69.674z" fill="#ffffff" data-fill-palette-color="accent"></path></g></g><g fill="#ffffff" data-fill-palette-color="accent"><g fill="#ffffff" data-fill-palette-color="accent"><path d="M48.097 81.627c0 0 0.004-0.004 0.012-0.013 2.848-2.847 4.273-4.272 4.273-4.272h-17.14v17.14c0 0 1.427-1.427 4.283-4.282 0.001-0.001 0.002-0.002 0.002-0.002s4.28 4.28 8.562 8.562c8.181 8.181 17.147 0.009 17.147 0.009L48.097 81.627z" fill="#ffffff" data-fill-palette-color="accent"></path></g></g></svg></g><g transform="matrix(1,0,0,1,248.40454109800228,9.89755)"><svg width="161.3" viewBox="3.5999999046325684 -31.799999237060547 161.2899932861328 31.899999618530273" height="31.900000000000002" data-palette-color="#ffffff"><path d="M32.45-31.6Q33.15-31.6 34.18-30.68 35.2-29.75 35.2-29.1L35.2-29.1Q35.2-26.05 35-20.75L35-20.75Q34.95-19.45 34.9-17.63 34.85-15.8 34.85-13.4L34.85-13.4Q34.85-5.8 35.75-2.2L35.75-2.2Q35.7-1 34.8-0.48 33.9 0.05 33 0.05L33 0.05Q31 0.05 30.38-1.35 29.75-2.75 29.75-5.35L29.75-5.35Q29.75-15 29.95-23.1L29.95-23.1Q24.2-16.7 21-12.35L21-12.35Q21-12.35 20.1-11.75L20.1-11.75Q19.25-11 18.7-11L18.7-11Q17.4-11 16.55-11.65 15.7-12.3 14.9-13.55L14.9-13.55 12.5-16.95Q10-20.45 8.85-22.25L8.85-22.25Q8.85-17.65 9.3-9.75L9.3-9.75Q9.65-5.2 9.65-2.9L9.65-2.9Q9.65-1.7 9.05-0.88 8.45-0.05 7.15-0.05L7.15-0.05Q5.85-0.05 5.03-0.55 4.2-1.05 4.15-2.05L4.15-2.05Q4.2-2.9 4.2-4.85L4.2-4.85Q4.2-8.75 3.95-14.35L3.95-14.35 3.85-17.05 3.75-20.55Q3.7-22.1 3.65-24.18 3.6-26.25 3.6-28.7L3.6-28.7Q3.6-31.7 6.85-31.7L6.85-31.7Q7.85-31.7 8.88-31.2 9.9-30.7 10.4-29.75L10.4-29.75Q10.8-28 13.35-23.95 15.9-19.9 18.35-16.35L18.35-16.35Q20.55-19.15 21.95-20.55L21.95-20.55Q24.35-23 25.93-25.1 27.5-27.2 29.35-30.15L29.35-30.15Q29.8-30.75 30.65-31.18 31.5-31.6 32.45-31.6L32.45-31.6ZM56.65-31.8Q60-31.8 62.75-30.98 65.5-30.15 67.25-28.55L67.25-28.55Q70.4-25.7 71.67-22.33 72.95-18.95 72.95-13.7L72.95-13.7Q72.95-12.6 72.67-11.7 72.4-10.8 71.8-9.4L71.8-9.4Q71.05-7.85 70.9-6.95L70.9-6.95Q69.9-5.2 67.62-3.6 65.35-2 62.7-1 60.05 0 58.05 0L58.05 0Q48.4 0 44.3-6.6L44.3-6.6Q43.15-8.45 42.52-10.45 41.9-12.45 41.9-14.35L41.9-14.35Q41.9-19.45 43.72-23.23 45.55-27 48.8-29.1L48.8-29.1Q50.75-30.25 52.87-31.03 55-31.8 56.65-31.8L56.65-31.8ZM47.1-14.2Q47.1-11.5 48.32-9.75 49.55-8 52.1-5.95L52.1-5.95Q54.2-5.15 54.95-4.93 55.7-4.7 56.65-4.7L56.65-4.7Q61.7-4.7 64.7-7.45 67.7-10.2 67.7-15L67.7-15Q67.7-18.8 66.85-21 66-23.2 63.8-24.95L63.8-24.95Q62.65-25.9 60.87-26.35 59.1-26.8 57.05-26.8L57.05-26.8Q53.95-26.8 51.7-24.98 49.45-23.15 48.27-20.25 47.1-17.35 47.1-14.2L47.1-14.2ZM100.05-28.1Q100.05-29.55 100.72-30.63 101.4-31.7 102.75-31.7L102.75-31.7Q103.9-31.7 104.8-31.25 105.7-30.8 105.7-29.75L105.7-29.75Q105.7-27.7 105.5-24L105.5-24Q105.3-20.4 105.3-18.65L105.3-18.65Q105.3-15.9 105.5-11.3L105.5-11.3Q105.7-6.9 105.7-4.85L105.7-4.85Q105.7-3.2 105.65-2.4L105.65-2.4Q105.65-1.6 104.77-0.83 103.9-0.05 102.1-0.05L102.1-0.05Q101.15-0.05 100.47-0.38 99.8-0.7 99.55-1.1L99.55-1.1Q97.2-3.95 92.7-10.8L92.7-10.8Q87.65-18.45 84.45-22.5L84.45-22.5Q84.85-18.9 84.85-13.7L84.85-13.7Q84.85-11.4 84.77-7.73 84.7-4.05 84.55-2.9L84.55-2.9Q84.35-1.45 83.67-0.68 83 0.1 81.55 0.1L81.55 0.1Q80.45 0.1 79.92-0.53 79.4-1.15 79.3-2.7L79.3-2.7Q79.25-4.75 79.55-8.85L79.55-8.85Q79.6-9.5 79.7-11.1 79.8-12.7 79.8-13.95L79.8-13.95Q79.8-17.4 79.45-21.85L79.45-21.85Q79.15-26.75 79.15-29.1L79.15-29.1Q79.15-30.3 80.02-30.95 80.9-31.6 82.05-31.6L82.05-31.6Q83.05-31.6 84.15-31.1L84.15-31.1Q88.45-25.7 95.8-15L95.8-15 100.5-7.8Q100.55-8.6 100.55-10.05L100.55-10.05Q100.55-12.6 100.45-15.55 100.35-18.5 100.3-19.55L100.3-19.55Q100.05-24.4 100.05-28.1L100.05-28.1ZM133.39-6.8Q134.34-6.8 134.82-6.08 135.29-5.35 135.29-4.5L135.29-4.5Q135.29-3.45 134.97-3.03 134.64-2.6 133.74-2.15L133.74-2.15Q131.64-1.15 128.54-0.55 125.44 0.05 121.89 0.05L121.89 0.05Q117.44 0.05 115.37-1.45 113.29-2.95 112.82-5.08 112.34-7.2 112.34-10.65L112.34-10.65Q112.34-14.35 112.64-17.93 112.94-21.5 113.69-27.05L113.69-27.05Q114.04-29.45 115.59-30.53 117.14-31.6 118.99-31.6L118.99-31.6Q120.54-31.6 124.04-31.7L124.04-31.7 128.39-31.75Q131.09-31.75 132.29-31.6L132.29-31.6Q133.79-31.3 134.52-30.93 135.24-30.55 135.24-29.65L135.24-29.65Q135.24-28.65 134.57-27.7 133.89-26.75 132.54-26.75L132.54-26.75Q130.99-26.75 128.09-26.95L128.09-26.95Q125.19-27.15 123.74-27.15L123.74-27.15Q122.49-27.15 121.29-27L121.29-27Q119.89-26.9 119.29-26.65 118.69-26.4 118.59-25.8L118.59-25.8Q117.89-20.65 117.89-18.2L117.89-18.2Q119.04-18.05 120.14-18.05L120.14-18.05Q121.54-18.05 123.14-18.2 124.74-18.35 125.19-18.4L125.19-18.4Q127.84-18.65 129.74-18.65L129.74-18.65Q130.84-18.65 131.42-18.25 131.99-17.85 131.99-17.15L131.99-17.15Q131.99-16.05 131.42-15.45 130.84-14.85 129.39-14.55L129.39-14.55Q127.64-14.2 125.07-14 122.49-13.8 120.04-13.8L120.04-13.8Q119.19-13.8 117.69-13.9L117.69-13.9Q117.54-10.85 117.54-8.25L117.54-8.25Q117.54-4.7 122.24-4.7L122.24-4.7Q124.74-4.7 126.39-5.05 128.04-5.4 130.19-6.05L130.19-6.05Q132.19-6.8 133.39-6.8L133.39-6.8ZM164.89-29.35Q164.89-28.45 163.34-26.7L163.34-26.7Q161.49-24.6 153.69-13.8L153.69-13.8Q153.79-7.35 154.09-4.95L154.09-4.95Q154.24-3.45 154.24-2.8L154.24-2.8Q154.24-1.15 153.67-0.58 153.09 0 151.69 0L151.69 0Q150.64 0 149.72-0.63 148.79-1.25 148.79-2.15L148.79-2.15Q148.79-5.8 148.64-12.85L148.64-12.85Q148.64-13.15 148.24-13.85 147.84-14.55 147.74-14.75L147.74-14.75Q146.69-16.6 145.12-18.88 143.54-21.15 142.39-22.3L142.39-22.3Q140.19-24.5 138.94-26.28 137.69-28.05 137.69-28.8L137.69-28.8Q137.69-29.85 138.67-30.48 139.64-31.1 140.79-31.1L140.79-31.1Q141.44-31.1 142.17-30.75 142.89-30.4 143.34-29.75L143.34-29.75Q146.29-25.35 148.59-22.45L148.59-22.45 150.94-19.4Q153.09-21.6 154.72-23.78 156.34-25.95 158.29-28.95L158.29-28.95 159.14-30.25Q160.09-31.55 162.09-31.55L162.09-31.55Q163.04-31.55 163.97-31 164.89-30.45 164.89-29.35L164.89-29.35Z" opacity="1" transform="matrix(1,0,0,1,0,0)" fill="#ffffff" class="undefined-p-1"></path></svg></g></svg></g></svg></g><g transform="matrix(1,0,0,1,78.25356734971844,59.225924400000004)"><svg viewBox="0 0 253.19740639856545 18.744558100081036" height="18.744558100081036" width="253.19740639856545"><g transform="matrix(1,0,0,1,0,0)"><svg width="253.19740639856545" viewBox="2 -35.7400016784668 677.9400024414062 50.19000244140625" height="18.744558100081036" data-palette-color="#ffffff"><path d="M24.66 0.78L24.66 0.78 25.44 2.78Q23.24 2.73 20.85 1.37 18.46 0 16.38-2.08 14.31-4.15 12.67-6.27 11.04-8.4 9.86-10.45L9.86-10.45 6.01-10.89Q6.1-7.32 6.4 0.2L6.4 0.2Q5.96 1.71 4.69 1.71L4.69 1.71Q3.81 1.71 3 1 2.2 0.29 2-0.73L2-0.73Q2.15-4.83 2.32-16.7 2.49-28.56 2.78-35.06L2.78-35.06 4.98-35.64Q4.98-34.08 5.03-33.89L5.03-33.89Q7.81-35.74 12.84-35.74L12.84-35.74Q18.26-35.74 20.95-32.35 23.63-28.96 23.63-22.85L23.63-22.85Q23.63-20.61 23.1-18.53 22.56-16.46 21.51-14.65 20.46-12.84 18.6-11.67 16.75-10.5 14.36-10.3L14.36-10.3Q16.06-6.74 18.95-3.37 21.83 0 24.66 0.78ZM5.47-30.62L5.47-30.62 5.86-15.38Q8.54-13.92 12.06-13.92L12.06-13.92Q15.43-13.92 17.77-16.46 20.12-18.99 20.12-22.66L20.12-22.66Q20.12-26.61 17.68-29.79 15.23-32.96 11.57-32.96L11.57-32.96Q8.59-32.96 5.47-30.62ZM45.26-4.74L45.26-4.74 45.75-2.59Q43.6-1.81 39.38-0.85 35.15 0.1 33.1 0.1L33.1 0.1Q31 0.1 29.44-1.29 27.88-2.69 27.1-4.86 26.32-7.03 25.95-9.16 25.58-11.28 25.58-13.33L25.58-13.33Q25.58-25.54 36.62-25.54L36.62-25.54Q39.26-25.54 41.26-23.85 43.26-22.17 43.26-19.48L43.26-19.48Q43.26-18.02 42.45-16.89 41.65-15.77 40.5-15.11 39.35-14.45 37.57-13.92 35.79-13.38 34.42-13.13 33.05-12.89 31.15-12.6 29.25-12.3 28.51-12.16L28.51-12.16Q28.56-10.74 28.68-9.67 28.81-8.59 29.17-7.35 29.54-6.1 30.15-5.3 30.76-4.49 31.83-3.96 32.91-3.42 34.37-3.42L34.37-3.42Q36.13-3.42 38.67-3.74 41.21-4.05 43.19-4.39 45.16-4.74 45.26-4.74ZM28.71-15.19L28.71-15.19Q35.35-17.09 39.6-19.19L39.6-19.19Q39.26-20.8 38.67-21.53 38.08-22.27 36.91-22.27L36.91-22.27Q33.93-22.27 31.52-20.21 29.1-18.16 28.71-15.19ZM64.16-24.22L64.16-24.22 63.91-22.12Q61.86-22.41 60.4-22.41L60.4-22.41Q57.03-22.41 54.83-20.39 52.63-18.36 51.83-15.6 51.02-12.84 51.02-9.47L51.02-9.47Q51.02-7.91 51.22-6.69 51.41-5.47 51.92-4.3 52.44-3.13 53.54-2.47 54.63-1.81 56.25-1.81L56.25-1.81Q58.39-1.81 61.71-2.64L61.71-2.64Q62.74-3.03 63.33-3.03L63.33-3.03Q64.5-3.03 64.74-0.29L64.74-0.29Q60.44 1.07 56.78 1.07L56.78 1.07Q51.46 1.07 49.58-1.54 47.7-4.15 47.7-10.01L47.7-10.01Q47.7-13.43 48.16-15.99 48.63-18.55 49.8-20.78 50.97-23 53.19-24.17 55.41-25.34 58.64-25.34L58.64-25.34Q62.25-25.34 64.16-24.22ZM70.74 14.45L70.74 14.45 67.72 12.74Q69.72 9.28 74.8-0.44L74.8-0.44Q70.84-3.96 68.74-11.08 66.64-18.21 66.2-25.34L66.2-25.34 69.04-25.2Q69.28-24.02 70.09-19.85 70.89-15.67 71.38-13.67 71.87-11.67 73.11-8.67 74.36-5.66 75.97-3.61L75.97-3.61Q82.76-16.65 82.76-25L82.76-25 82.76-25.54Q85.3-25.15 86.56-24.61L86.56-24.61Q85.78-19.48 84.12-14.16 82.46-8.84 79.97-3.44 77.48 1.95 75.55 5.62 73.63 9.28 70.74 14.45ZM105.02-24.22L105.02-24.22 104.78-22.12Q102.72-22.41 101.26-22.41L101.26-22.41Q97.89-22.41 95.69-20.39 93.5-18.36 92.69-15.6 91.88-12.84 91.88-9.47L91.88-9.47Q91.88-7.91 92.08-6.69 92.28-5.47 92.79-4.3 93.3-3.13 94.4-2.47 95.5-1.81 97.11-1.81L97.11-1.81Q99.26-1.81 102.58-2.64L102.58-2.64Q103.6-3.03 104.19-3.03L104.19-3.03Q105.36-3.03 105.61-0.29L105.61-0.29Q101.31 1.07 97.65 1.07L97.65 1.07Q92.32 1.07 90.44-1.54 88.56-4.15 88.56-10.01L88.56-10.01Q88.56-13.43 89.03-15.99 89.49-18.55 90.66-20.78 91.84-23 94.06-24.17 96.28-25.34 99.5-25.34L99.5-25.34Q103.12-25.34 105.02-24.22ZM108.09-2.34L109.17-33.5 111.41-33.01 112.49-1.42Q112.05 0.1 110.78 0.1L110.78 0.1Q109.9 0.1 109.09-0.61 108.29-1.32 108.09-2.34L108.09-2.34ZM136.17-4.74L136.17-4.74 136.65-2.59Q134.51-1.81 130.28-0.85 126.06 0.1 124.01 0.1L124.01 0.1Q121.91 0.1 120.35-1.29 118.78-2.69 118-4.86 117.22-7.03 116.86-9.16 116.49-11.28 116.49-13.33L116.49-13.33Q116.49-25.54 127.52-25.54L127.52-25.54Q130.16-25.54 132.16-23.85 134.16-22.17 134.16-19.48L134.16-19.48Q134.16-18.02 133.36-16.89 132.55-15.77 131.41-15.11 130.26-14.45 128.48-13.92 126.69-13.38 125.33-13.13 123.96-12.89 122.06-12.6 120.15-12.3 119.42-12.16L119.42-12.16Q119.47-10.74 119.59-9.67 119.71-8.59 120.08-7.35 120.44-6.1 121.05-5.3 121.66-4.49 122.74-3.96 123.81-3.42 125.28-3.42L125.28-3.42Q127.04-3.42 129.57-3.74 132.11-4.05 134.09-4.39 136.07-4.74 136.17-4.74ZM119.61-15.19L119.61-15.19Q126.25-17.09 130.5-19.19L130.5-19.19Q130.16-20.8 129.57-21.53 128.99-22.27 127.82-22.27L127.82-22.27Q124.84-22.27 122.42-20.21 120-18.16 119.61-15.19ZM156.08 14.45L156.08 14.45 153.06 12.74Q155.06 9.28 160.14-0.44L160.14-0.44Q156.18-3.96 154.08-11.08 151.98-18.21 151.54-25.34L151.54-25.34 154.37-25.2Q154.62-24.02 155.42-19.85 156.23-15.67 156.72-13.67 157.21-11.67 158.45-8.67 159.7-5.66 161.31-3.61L161.31-3.61Q168.1-16.65 168.1-25L168.1-25 168.1-25.54Q170.63-25.15 171.9-24.61L171.9-24.61Q171.12-19.48 169.46-14.16 167.8-8.84 165.31-3.44 162.82 1.95 160.89 5.62 158.96 9.28 156.08 14.45ZM173.9-10.4L173.9-10.4Q173.9-12.35 174.32-14.75 174.73-17.14 175.56-19.78 176.39-22.41 178.05-24.17 179.71-25.93 181.91-25.93L181.91-25.93Q186.6-25.93 189.43-21.7 192.26-17.48 192.26-12.3L192.26-12.3Q192.26-10.11 191.8-7.93 191.33-5.76 190.36-3.66 189.38-1.56 187.55-0.17 185.72 1.22 183.28 1.42L183.28 1.42Q178.79 0.83 176.34-2.42 173.9-5.66 173.9-10.4ZM182.2-23.39L182.2-23.39Q180.5-23.19 179.32-20.26 178.15-17.33 177.81-14.58 177.47-11.82 177.47-9.72L177.47-9.72Q177.47-6.98 179.15-4.66 180.84-2.34 182.94-2.34L182.94-2.34Q184.45-2.34 185.67-3.52 186.89-4.69 187.6-6.42 188.31-8.15 188.67-9.91 189.04-11.67 189.04-13.04L189.04-13.04Q189.04-17.04 187.23-20.02 185.43-23 182.2-23.39ZM210.72-24.51L210.72-24.51 213.06-24.07 213.06-23.58Q213.06-20.26 213.48-12.35 213.89-4.44 214.23-0.15L214.23-0.15Q213.26 0.24 212.38 0.24L212.38 0.24Q211.6 0.24 210.62 0L210.62 0 210.23-1.27Q207.1 0.49 204.27 0.49L204.27 0.49Q202.17 0.49 200.63-0.49 199.1-1.46 198.27-2.91 197.44-4.35 196.95-6.47 196.46-8.59 196.34-10.33 196.22-12.06 196.22-14.21L196.22-14.21Q196.22-20.46 197-25.68L197-25.68 199.19-25.2Q199.54-23.58 199.54-21.68L199.54-21.68Q199.54-20.61 199.41-17.97 199.29-15.33 199.29-13.96L199.29-13.96Q199.29-11.57 199.51-9.84 199.73-8.11 200.34-6.47 200.95-4.83 202.22-3.96 203.49-3.08 205.39-3.08L205.39-3.08Q207.54-3.08 210.03-4.05L210.03-4.05Q210.13-5.86 210.23-13.31 210.33-20.75 210.72-24.51ZM234.3-18.6L234.3-18.6 232.15-18.75Q231.12-21.48 228.68-21.48L228.68-21.48Q227.61-21.48 226.41-21 225.22-20.51 224.44-20 223.65-19.48 222.38-18.51L222.38-18.51Q222.38-17.82 222.36-14.06 222.34-10.3 222.41-5.71 222.48-1.12 222.58-0.78L222.58-0.78Q222.14 0.68 220.87 0.68L220.87 0.68Q219.99 0.68 219.19-0.02 218.38-0.73 218.19-1.76L218.19-1.76Q219.11-17.43 219.85-25.44L219.85-25.44 222.04-24.95 222.19-21.68Q225.61-24.51 228.05-24.51L228.05-24.51Q230.73-24.51 232.57-23.29 234.4-22.07 234.4-19.73L234.4-19.73Q234.4-18.99 234.3-18.6ZM250.31 11.77L250.9-25.68 253.63-25.2Q253.63-24.17 253.68-23.68L253.68-23.68Q256.36-25.39 259.1-25.39L259.1-25.39Q263.54-25.39 266.03-21.58 268.52-17.77 268.52-12.94L268.52-12.94Q268.52-10.5 268.16-8.28 267.79-6.05 266.86-3.74 265.93-1.42 264.01-0.02 262.08 1.37 259.34 1.37L259.34 1.37Q256.75 1.37 254.36 0L254.36 0Q254.56 8.54 254.7 12.7L254.7 12.7Q254.26 14.21 252.99 14.21L252.99 14.21Q252.12 14.21 251.31 13.5 250.5 12.79 250.31 11.77L250.31 11.77ZM254.07-20.51L254.07-20.51 254.22-4.74Q254.8-3.56 256.02-2.86 257.24-2.15 258.71-2.15L258.71-2.15Q260.61-2.15 261.95-3.37 263.3-4.59 263.86-6.62 264.42-8.64 264.64-10.4 264.86-12.16 264.86-14.11L264.86-14.11Q264.86-22.41 259.24-22.41L259.24-22.41Q257.44-22.41 255.9-21.9 254.36-21.39 254.07-20.51ZM272.47-2.34L273.55-33.5 275.8-33.01 276.87-1.42Q276.43 0.1 275.16 0.1L275.16 0.1Q274.28 0.1 273.48-0.61 272.67-1.32 272.47-2.34L272.47-2.34ZM282.63-21.09L282.63-21.09 281.65-23.58Q282.92-24.85 284.87-25.61 286.83-26.37 288.73-26.37L288.73-26.37Q296.98-26.37 296.98-12.11L296.98-12.11Q296.98-10.16 296.76-6.35 296.54-2.54 296.54-0.63L296.54-0.63Q296.15 0.88 295.03 0.88L295.03 0.88Q294.15 0.88 293.42 0 292.69-0.88 292.69-1.95L292.69-1.95Q292.69-2.29 292.74-2.44L292.74-2.44Q289.71 0.49 286.29 0.49L286.29 0.49Q283.7 0.49 281.77-1.39 279.85-3.27 279.85-5.96L279.85-5.96Q279.85-10.5 283.39-14.16 286.93-17.82 291.42-17.82L291.42-17.82Q291.61-17.82 291.81-17.8 292-17.77 292.27-17.72 292.54-17.68 292.69-17.68L292.69-17.68Q292.3-23.39 288.15-23.39L288.15-23.39Q285.7-23.39 282.63-21.09ZM292.83-5.81L292.83-5.81Q292.93-9.23 292.93-10.99L292.93-10.99Q292.93-12.45 292.83-15.09L292.83-15.09 292.44-15.09Q288.98-15.04 286.12-12.5 283.26-9.96 283.26-6.35L283.26-6.35Q283.26-4.79 284.22-3.86 285.17-2.93 286.53-2.93L286.53-2.93Q288.68-2.93 292.83-5.81ZM315.98-23.54L315.98-23.54 315.49-21.58Q310.75-23.54 308.11-23.54L308.11-23.54Q305.77-23.54 304.82-22.83 303.87-22.12 303.87-19.82L303.87-19.82Q303.87-17.97 305.21-16.75 306.55-15.53 308.46-14.82 310.36-14.11 312.29-13.31 314.22-12.5 315.56-10.94 316.9-9.38 316.9-7.08L316.9-7.08Q316.9-3.96 314.61-1.61 312.31 0.73 308.65 0.78L308.65 0.78Q305.97 0.78 303.62-0.34 301.28-1.46 299.91-3.17L299.91-3.17 301.33-4.64Q301.91-4.39 303.06-3.86 304.21-3.32 304.7-3.15 305.18-2.98 306.14-2.78 307.09-2.59 308.16-2.59L308.16-2.59Q310.46-2.59 311.92-3.61 313.39-4.64 313.39-6.49L313.39-6.49Q313.39-7.71 312.7-8.57 312.02-9.42 310.9-9.96 309.77-10.5 308.43-10.99 307.09-11.47 305.75-12.08 304.4-12.7 303.28-13.55 302.16-14.4 301.47-15.87 300.79-17.33 300.79-19.34L300.79-19.34Q300.79-22.27 302.38-24.24 303.96-26.22 306.84-26.22L306.84-26.22Q307.97-26.22 309.38-25.88 310.8-25.54 311.63-25.24 312.46-24.95 314.1-24.29 315.73-23.63 315.98-23.54ZM333.21-23.63L333.21-23.63 333.75-21.44Q332.43-21.34 329.69-20.92 326.96-20.51 325.59-20.41L325.59-20.41Q325.84-18.7 325.89-15.92 325.93-13.13 326.01-11.11 326.08-9.08 326.45-7.06 326.81-5.03 327.96-3.96 329.11-2.88 331.06-2.88L331.06-2.88Q332.53-2.88 334.72-3.56L334.72-3.56Q335.65-1.76 336.09-0.93L336.09-0.93Q332.23 0.44 328.28 0.44L328.28 0.44Q326.81 0.44 325.74-0.44 324.66-1.32 324.08-2.64 323.49-3.96 323.13-5.98 322.76-8.01 322.66-9.81 322.56-11.62 322.56-13.96L322.56-13.96Q322.56-15.23 322.59-17.48 322.61-19.73 322.61-20.56L322.61-20.56Q322.13-20.51 320.32-20.48 318.51-20.46 318.22-20.46L318.22-20.46Q317.88-23.73 317.88-23.83L317.88-23.83Q318.22-23.73 319-23.73L319-23.73Q319.44-23.73 320.42-23.8 321.39-23.88 321.88-23.88L321.88-23.88Q322.08-23.88 322.39-23.85 322.71-23.83 322.81-23.83L322.81-23.83Q323-29.2 323.25-32.57L323.25-32.57 325.45-32.03Q325.49-30.86 325.52-29.52 325.54-28.17 325.57-26.54 325.59-24.9 325.59-24.02L325.59-24.02Q326.86-23.93 329.4-23.83 331.94-23.73 333.21-23.63ZM339.12-25.1L339.12-25.1 341.36-24.61Q341.75-20.61 342.04-12.04 342.34-3.47 342.44-1.42L342.44-1.42Q342 0.1 340.73 0.1L340.73 0.1Q339.85 0.1 339.04-0.61 338.24-1.32 338.04-2.34L338.04-2.34Q338.14-4.35 338.43-12.77 338.72-21.19 339.12-25.1ZM339.8-33.84L339.8-33.84Q341.12-33.84 342-32.69 342.87-31.54 342.87-30.08L342.87-30.08Q342.87-29 342.36-28.34 341.85-27.69 340.97-27.69L340.97-27.69Q339.6-27.69 338.82-28.81 338.04-29.93 338.04-31.45L338.04-31.45Q338.04-32.52 338.5-33.18 338.97-33.84 339.8-33.84ZM363.33-24.22L363.33-24.22 363.09-22.12Q361.04-22.41 359.57-22.41L359.57-22.41Q356.2-22.41 354.01-20.39 351.81-18.36 351-15.6 350.2-12.84 350.2-9.47L350.2-9.47Q350.2-7.91 350.39-6.69 350.59-5.47 351.1-4.3 351.61-3.13 352.71-2.47 353.81-1.81 355.42-1.81L355.42-1.81Q357.57-1.81 360.89-2.64L360.89-2.64Q361.92-3.03 362.5-3.03L362.5-3.03Q363.67-3.03 363.92-0.29L363.92-0.29Q359.62 1.07 355.96 1.07L355.96 1.07Q350.64 1.07 348.76-1.54 346.88-4.15 346.88-10.01L346.88-10.01Q346.88-13.43 347.34-15.99 347.8-18.55 348.98-20.78 350.15-23 352.37-24.17 354.59-25.34 357.81-25.34L357.81-25.34Q361.43-25.34 363.33-24.22ZM381.44-25.1L381.44-25.1 383.69-24.61Q384.08-20.61 384.37-12.04 384.66-3.47 384.76-1.42L384.76-1.42Q384.32 0.1 383.05 0.1L383.05 0.1Q382.17 0.1 381.37-0.61 380.56-1.32 380.37-2.34L380.37-2.34Q380.47-4.35 380.76-12.77 381.05-21.19 381.44-25.1ZM382.13-33.84L382.13-33.84Q383.44-33.84 384.32-32.69 385.2-31.54 385.2-30.08L385.2-30.08Q385.2-29 384.69-28.34 384.18-27.69 383.3-27.69L383.3-27.69Q381.93-27.69 381.15-28.81 380.37-29.93 380.37-31.45L380.37-31.45Q380.37-32.52 380.83-33.18 381.3-33.84 382.13-33.84ZM392.52-19.53L392.52-19.53 392.72-0.2Q391.99 0.2 390.96 0.2L390.96 0.2Q390.18 0.2 389.2-0.05L389.2-0.05Q389.35-3.13 389.4-12.16 389.45-21.19 389.79-25.54L389.79-25.54 391.99-25.05 392.13-22.31Q394.72-25.05 398.09-25.05L398.09-25.05Q399.8-25.05 400.82-24.8 401.85-24.56 402.8-23.61 403.75-22.66 404.24-21.09 404.73-19.53 405.12-16.63 405.51-13.72 405.68-9.84 405.85-5.96 405.9-0.05L405.9-0.05Q405.61 0.05 404.78 0.05L404.78 0.05Q403.02 0.05 402.04-0.39L402.04-0.39Q401.85-1.17 401.85-2.98L401.85-2.98Q401.85-3.91 401.92-6.47 402-9.03 402-10.45L402-10.45Q402-12.79 401.82-14.55 401.65-16.31 401.19-18.02 400.73-19.73 399.77-20.65 398.82-21.58 397.41-21.58L397.41-21.58Q395.79-21.58 394.89-21.34 393.99-21.09 393.62-20.75 393.26-20.41 392.52-19.53ZM423.18-23.63L423.18-23.63 423.72-21.44Q422.4-21.34 419.67-20.92 416.93-20.51 415.57-20.41L415.57-20.41Q415.81-18.7 415.86-15.92 415.91-13.13 415.98-11.11 416.06-9.08 416.42-7.06 416.79-5.03 417.94-3.96 419.08-2.88 421.04-2.88L421.04-2.88Q422.5-2.88 424.7-3.56L424.7-3.56Q425.63-1.76 426.07-0.93L426.07-0.93Q422.21 0.44 418.25 0.44L418.25 0.44Q416.79 0.44 415.71-0.44 414.64-1.32 414.05-2.64 413.47-3.96 413.1-5.98 412.74-8.01 412.64-9.81 412.54-11.62 412.54-13.96L412.54-13.96Q412.54-15.23 412.56-17.48 412.59-19.73 412.59-20.56L412.59-20.56Q412.1-20.51 410.29-20.48 408.49-20.46 408.19-20.46L408.19-20.46Q407.85-23.73 407.85-23.83L407.85-23.83Q408.19-23.73 408.98-23.73L408.98-23.73Q409.42-23.73 410.39-23.8 411.37-23.88 411.86-23.88L411.86-23.88Q412.05-23.88 412.37-23.85 412.69-23.83 412.78-23.83L412.78-23.83Q412.98-29.2 413.22-32.57L413.22-32.57 415.42-32.03Q415.47-30.86 415.49-29.52 415.52-28.17 415.54-26.54 415.57-24.9 415.57-24.02L415.57-24.02Q416.84-23.93 419.38-23.83 421.92-23.73 423.18-23.63ZM425.97-10.4L425.97-10.4Q425.97-12.35 426.38-14.75 426.8-17.14 427.63-19.78 428.46-22.41 430.12-24.17 431.78-25.93 433.97-25.93L433.97-25.93Q438.66-25.93 441.49-21.7 444.32-17.48 444.32-12.3L444.32-12.3Q444.32-10.11 443.86-7.93 443.4-5.76 442.42-3.66 441.44-1.56 439.61-0.17 437.78 1.22 435.34 1.42L435.34 1.42Q430.85 0.83 428.41-2.42 425.97-5.66 425.97-10.4ZM434.27-23.39L434.27-23.39Q432.56-23.19 431.39-20.26 430.21-17.33 429.87-14.58 429.53-11.82 429.53-9.72L429.53-9.72Q429.53-6.98 431.21-4.66 432.9-2.34 435-2.34L435-2.34Q436.51-2.34 437.73-3.52 438.95-4.69 439.66-6.42 440.37-8.15 440.74-9.91 441.1-11.67 441.1-13.04L441.1-13.04Q441.1-17.04 439.3-20.02 437.49-23 434.27-23.39ZM465.76 14.45L465.76 14.45 462.73 12.74Q464.73 9.28 469.81-0.44L469.81-0.44Q465.85-3.96 463.75-11.08 461.65-18.21 461.21-25.34L461.21-25.34 464.05-25.2Q464.29-24.02 465.1-19.85 465.9-15.67 466.39-13.67 466.88-11.67 468.12-8.67 469.37-5.66 470.98-3.61L470.98-3.61Q477.77-16.65 477.77-25L477.77-25 477.77-25.54Q480.31-25.15 481.58-24.61L481.58-24.61Q480.79-19.48 479.13-14.16 477.47-8.84 474.98-3.44 472.49 1.95 470.56 5.62 468.64 9.28 465.76 14.45ZM483.58-10.4L483.58-10.4Q483.58-12.35 483.99-14.75 484.41-17.14 485.24-19.78 486.07-22.41 487.73-24.17 489.39-25.93 491.58-25.93L491.58-25.93Q496.27-25.93 499.1-21.7 501.93-17.48 501.93-12.3L501.93-12.3Q501.93-10.11 501.47-7.93 501.01-5.76 500.03-3.66 499.05-1.56 497.22-0.17 495.39 1.22 492.95 1.42L492.95 1.42Q488.46 0.83 486.02-2.42 483.58-5.66 483.58-10.4ZM491.88-23.39L491.88-23.39Q490.17-23.19 489-20.26 487.82-17.33 487.48-14.58 487.14-11.82 487.14-9.72L487.14-9.72Q487.14-6.98 488.82-4.66 490.51-2.34 492.61-2.34L492.61-2.34Q494.12-2.34 495.34-3.52 496.56-4.69 497.27-6.42 497.98-8.15 498.35-9.91 498.71-11.67 498.71-13.04L498.71-13.04Q498.71-17.04 496.91-20.02 495.1-23 491.88-23.39ZM520.39-24.51L520.39-24.51 522.73-24.07 522.73-23.58Q522.73-20.26 523.15-12.35 523.56-4.44 523.9-0.15L523.9-0.15Q522.93 0.24 522.05 0.24L522.05 0.24Q521.27 0.24 520.29 0L520.29 0 519.9-1.27Q516.78 0.49 513.94 0.49L513.94 0.49Q511.84 0.49 510.31-0.49 508.77-1.46 507.94-2.91 507.11-4.35 506.62-6.47 506.13-8.59 506.01-10.33 505.89-12.06 505.89-14.21L505.89-14.21Q505.89-20.46 506.67-25.68L506.67-25.68 508.87-25.2Q509.21-23.58 509.21-21.68L509.21-21.68Q509.21-20.61 509.09-17.97 508.96-15.33 508.96-13.96L508.96-13.96Q508.96-11.57 509.18-9.84 509.4-8.11 510.01-6.47 510.62-4.83 511.89-3.96 513.16-3.08 515.07-3.08L515.07-3.08Q517.22-3.08 519.71-4.05L519.71-4.05Q519.8-5.86 519.9-13.31 520-20.75 520.39-24.51ZM543.97-18.6L543.97-18.6 541.82-18.75Q540.8-21.48 538.36-21.48L538.36-21.48Q537.28-21.48 536.08-21 534.89-20.51 534.11-20 533.33-19.48 532.06-18.51L532.06-18.51Q532.06-17.82 532.03-14.06 532.01-10.3 532.08-5.71 532.15-1.12 532.25-0.78L532.25-0.78Q531.81 0.68 530.54 0.68L530.54 0.68Q529.66 0.68 528.86-0.02 528.05-0.73 527.86-1.76L527.86-1.76Q528.78-17.43 529.52-25.44L529.52-25.44 531.71-24.95 531.86-21.68Q535.28-24.51 537.72-24.51L537.72-24.51Q540.41-24.51 542.24-23.29 544.07-22.07 544.07-19.73L544.07-19.73Q544.07-18.99 543.97-18.6ZM559.98 11.77L560.57-25.68 563.3-25.2Q563.3-24.17 563.35-23.68L563.35-23.68Q566.04-25.39 568.77-25.39L568.77-25.39Q573.21-25.39 575.7-21.58 578.19-17.77 578.19-12.94L578.19-12.94Q578.19-10.5 577.83-8.28 577.46-6.05 576.53-3.74 575.61-1.42 573.68-0.02 571.75 1.37 569.01 1.37L569.01 1.37Q566.43 1.37 564.03 0L564.03 0Q564.23 8.54 564.38 12.7L564.38 12.7Q563.94 14.21 562.67 14.21L562.67 14.21Q561.79 14.21 560.98 13.5 560.18 12.79 559.98 11.77L559.98 11.77ZM563.74-20.51L563.74-20.51 563.89-4.74Q564.47-3.56 565.69-2.86 566.91-2.15 568.38-2.15L568.38-2.15Q570.28-2.15 571.63-3.37 572.97-4.59 573.53-6.62 574.09-8.64 574.31-10.4 574.53-12.16 574.53-14.11L574.53-14.11Q574.53-22.41 568.92-22.41L568.92-22.41Q567.11-22.41 565.57-21.9 564.03-21.39 563.74-20.51ZM582.15-10.4L582.15-10.4Q582.15-12.35 582.56-14.75 582.98-17.14 583.81-19.78 584.64-22.41 586.3-24.17 587.96-25.93 590.15-25.93L590.15-25.93Q594.84-25.93 597.67-21.7 600.51-17.48 600.51-12.3L600.51-12.3Q600.51-10.11 600.04-7.93 599.58-5.76 598.6-3.66 597.63-1.56 595.79-0.17 593.96 1.22 591.52 1.42L591.52 1.42Q587.03 0.83 584.59-2.42 582.15-5.66 582.15-10.4ZM590.45-23.39L590.45-23.39Q588.74-23.19 587.57-20.26 586.39-17.33 586.05-14.58 585.71-11.82 585.71-9.72L585.71-9.72Q585.71-6.98 587.4-4.66 589.08-2.34 591.18-2.34L591.18-2.34Q592.69-2.34 593.91-3.52 595.13-4.69 595.84-6.42 596.55-8.15 596.92-9.91 597.28-11.67 597.28-13.04L597.28-13.04Q597.28-17.04 595.48-20.02 593.67-23 590.45-23.39ZM620.91-24.22L620.91-24.22 620.67-22.12Q618.62-22.41 617.15-22.41L617.15-22.41Q613.78-22.41 611.59-20.39 609.39-18.36 608.58-15.6 607.78-12.84 607.78-9.47L607.78-9.47Q607.78-7.91 607.97-6.69 608.17-5.47 608.68-4.3 609.19-3.13 610.29-2.47 611.39-1.81 613-1.81L613-1.81Q615.15-1.81 618.47-2.64L618.47-2.64Q619.5-3.03 620.08-3.03L620.08-3.03Q621.26-3.03 621.5-0.29L621.5-0.29Q617.2 1.07 613.54 1.07L613.54 1.07Q608.22 1.07 606.34-1.54 604.46-4.15 604.46-10.01L604.46-10.01Q604.46-13.43 604.92-15.99 605.39-18.55 606.56-20.78 607.73-23 609.95-24.17 612.17-25.34 615.4-25.34L615.4-25.34Q619.01-25.34 620.91-24.22ZM641.81 0L641.81 0 637.32-0.1Q635.51-1.9 632.36-5.93 629.21-9.96 628.38-10.89L628.38-10.89 628.38-0.83Q627.94 0.63 626.67 0.63L626.67 0.63Q625.79 0.63 624.99-0.07 624.18-0.78 623.99-1.81L623.99-1.81Q624.13-6.84 624.13-18.51 624.13-30.18 624.33-35.25L624.33-35.25 627.31-34.62Q627.36-32.67 627.48-26.61 627.6-20.56 627.7-17.58L627.7-17.58 639.56-26.27 640.39-24.07Q635.75-20.7 629.5-14.55L629.5-14.55Q630.82-13.13 635.34-7.64 639.86-2.15 641.81 0ZM661.29-4.74L661.29-4.74 661.78-2.59Q659.63-1.81 655.41-0.85 651.18 0.1 649.13 0.1L649.13 0.1Q647.03 0.1 645.47-1.29 643.91-2.69 643.13-4.86 642.34-7.03 641.98-9.16 641.61-11.28 641.61-13.33L641.61-13.33Q641.61-25.54 652.65-25.54L652.65-25.54Q655.28-25.54 657.29-23.85 659.29-22.17 659.29-19.48L659.29-19.48Q659.29-18.02 658.48-16.89 657.68-15.77 656.53-15.11 655.38-14.45 653.6-13.92 651.82-13.38 650.45-13.13 649.08-12.89 647.18-12.6 645.27-12.3 644.54-12.16L644.54-12.16Q644.59-10.74 644.71-9.67 644.83-8.59 645.2-7.35 645.57-6.1 646.18-5.3 646.79-4.49 647.86-3.96 648.94-3.42 650.4-3.42L650.4-3.42Q652.16-3.42 654.7-3.74 657.24-4.05 659.21-4.39 661.19-4.74 661.29-4.74ZM644.74-15.19L644.74-15.19Q651.38-17.09 655.63-19.19L655.63-19.19Q655.28-20.8 654.7-21.53 654.11-22.27 652.94-22.27L652.94-22.27Q649.96-22.27 647.54-20.21 645.13-18.16 644.74-15.19ZM677.06-23.63L677.06-23.63 677.6-21.44Q676.28-21.34 673.54-20.92 670.81-20.51 669.44-20.41L669.44-20.41Q669.69-18.7 669.73-15.92 669.78-13.13 669.86-11.11 669.93-9.08 670.3-7.06 670.66-5.03 671.81-3.96 672.96-2.88 674.91-2.88L674.91-2.88Q676.37-2.88 678.57-3.56L678.57-3.56Q679.5-1.76 679.94-0.93L679.94-0.93Q676.08 0.44 672.13 0.44L672.13 0.44Q670.66 0.44 669.59-0.44 668.51-1.32 667.93-2.64 667.34-3.96 666.98-5.98 666.61-8.01 666.51-9.81 666.41-11.62 666.41-13.96L666.41-13.96Q666.41-15.23 666.44-17.48 666.46-19.73 666.46-20.56L666.46-20.56Q665.97-20.51 664.17-20.48 662.36-20.46 662.07-20.46L662.07-20.46Q661.73-23.73 661.73-23.83L661.73-23.83Q662.07-23.73 662.85-23.73L662.85-23.73Q663.29-23.73 664.27-23.8 665.24-23.88 665.73-23.88L665.73-23.88Q665.93-23.88 666.24-23.85 666.56-23.83 666.66-23.83L666.66-23.83Q666.85-29.2 667.1-32.57L667.1-32.57 669.29-32.03Q669.34-30.86 669.37-29.52 669.39-28.17 669.42-26.54 669.44-24.9 669.44-24.02L669.44-24.02Q670.71-23.93 673.25-23.83 675.79-23.73 677.06-23.63Z" opacity="1" transform="matrix(1,0,0,1,0,0)" fill="#ffffff" class="undefined-text-1" data-fill-palette-color="secondary" id="text-1"></path></svg></g></svg></g></svg></g></svg></g></svg></g><defs></defs></svg><rect width="395.52" height="75.2710359416185" fill="none" stroke="none" visibility="hidden"></rect></g></svg></g></svg>